
        <svg xmlns="http://www.w3.org/2000/svg" xmlns:xlink="http://www.w3.org/1999/xlink" version="1.1" width="3171.4285714285716" 
        height="2202.512414781091" viewBox="0 0 3171.4285714285716 2202.512414781091">
			
			<g transform="scale(8.571428571428571) translate(10, 10)">
				<defs id="SvgjsDefs1234"><linearGradient id="SvgjsLinearGradient1241"><stop id="SvgjsStop1242" stop-color="#905e26" offset="0"></stop><stop id="SvgjsStop1243" stop-color="#f5ec9b" offset="0.5"></stop><stop id="SvgjsStop1244" stop-color="#905e26" offset="1"></stop></linearGradient><linearGradient id="SvgjsLinearGradient1245"><stop id="SvgjsStop1246" stop-color="#905e26" offset="0"></stop><stop id="SvgjsStop1247" stop-color="#f5ec9b" offset="0.5"></stop><stop id="SvgjsStop1248" stop-color="#905e26" offset="1"></stop></linearGradient><linearGradient id="SvgjsLinearGradient1249"><stop id="SvgjsStop1250" stop-color="#905e26" offset="0"></stop><stop id="SvgjsStop1251" stop-color="#f5ec9b" offset="0.5"></stop><stop id="SvgjsStop1252" stop-color="#905e26" offset="1"></stop></linearGradient></defs><g id="SvgjsG1235" featureKey="41S5F6-0" transform="matrix(2.3728813559322033,0,0,2.3728813559322033,99.0677966101695,-5.932203389830509)" fill="url(#SvgjsLinearGradient1241)"><title xmlns="http://www.w3.org/2000/svg">1</title><path xmlns="http://www.w3.org/2000/svg" d="M32,19.11A12.90151,12.90151,0,0,0,19.11,32c.70455,17.101,25.07807,17.096,25.78005-.0001A12.90153,12.90153,0,0,0,32,19.11Zm0,18.82c-7.8369-.24891-7.835-11.61228.00013-11.86C39.83689,26.31888,39.83506,37.68225,32,37.93Z"></path><path xmlns="http://www.w3.org/2000/svg" d="M32,47.89A15.89467,15.89467,0,0,1,17.21,37.77,9.76652,9.76652,0,0,1,3.6,39.96,29.54243,29.54243,0,0,0,32,61.5C41.00139,61.18214,40.997,48.20693,32,47.89Z"></path><path xmlns="http://www.w3.org/2000/svg" d="M54.7,25.2A6.80922,6.80922,0,0,0,47.89,32,15.8947,15.8947,0,0,1,37.77,46.79,9.87139,9.87139,0,0,1,39.9598,60.4,29.54234,29.54234,0,0,0,61.5,32,6.80708,6.80708,0,0,0,54.7,25.2Z"></path><path xmlns="http://www.w3.org/2000/svg" d="M32,16.11A15.8947,15.8947,0,0,1,46.79,26.23,9.76667,9.76667,0,0,1,60.4,24.04,29.54245,29.54245,0,0,0,32,2.5C22.99861,2.81786,23.003,15.79307,32,16.11Z"></path><path xmlns="http://www.w3.org/2000/svg" d="M9.3,38.8A6.80922,6.80922,0,0,0,16.11,32,15.89472,15.89472,0,0,1,26.23,17.21a9.87137,9.87137,0,0,1-2.18978-13.61A29.54241,29.54241,0,0,0,2.5,32,6.80708,6.80708,0,0,0,9.3,38.8Z"></path><path xmlns="http://www.w3.org/2000/svg" d="M32,29.07a2.93017,2.93017,0,0,0,.00009,5.86A2.93017,2.93017,0,0,0,32,29.07Z"></path></g><g id="SvgjsG1236" featureKey="RGwKHf-0" transform="matrix(3.6171971090619404,0,0,3.6171971090619404,-6.004545355491851,138.15212269999503)" fill="url(#SvgjsLinearGradient1245)"><path d="M1.8 6.32 q1.56 -0.04 2.65 -0.06 t1.73 -0.02 q2.18 0 3.36 0.93 t1.18 2.69 q0 0.92 -0.5 1.68 t-1.34 1.1 q0.5 0.16 0.96 0.49 t0.8 0.8 t0.53 1.03 t0.19 1.16 q0 1.92 -1.26 2.95 t-3.62 1.03 q-0.74 0 -1.9 -0.02 t-2.78 -0.06 l-0.14 -0.12 l0 -13.46 z M6.28 13.82 l-1.96 0 l0 4.36 q0.38 -0.02 0.86 -0.01 t0.96 -0.01 t0.93 -0.09 t0.8 -0.33 t0.56 -0.68 t0.21 -1.08 q0 -0.42 -0.14 -0.81 t-0.42 -0.69 t-0.73 -0.48 t-1.07 -0.18 z M4.32 8.18 l0 3.66 l1.74 0 q2 0 2 -1.84 q0 -0.76 -0.29 -1.14 t-0.81 -0.52 t-1.21 -0.13 t-1.43 -0.03 z M20.72 16.9 l-0.98 0.02 l-2.8 0 l-0.98 -0.02 l-0.94 3.12 q-0.42 0.1 -1.19 0.1 t-1.25 -0.18 l-0.1 -0.14 l4.46 -13.46 q0.74 -0.1 1.6 -0.1 t1.5 0.12 l4.38 13.46 q-0.58 0.34 -1.39 0.34 t-1.16 -0.3 t-0.59 -1.14 z M16.62 14.78 l0.9 -0.02 l1.72 0 l0.84 0.02 l-0.6 -2.04 q-0.68 -2.28 -1.08 -3.88 l-0.12 0 q-0.18 0.86 -0.88 3.38 z M33.62 11.44 l0 -0.2 q0 -0.66 -0.14 -1.21 t-0.44 -0.96 t-0.77 -0.64 t-1.13 -0.23 q-1.46 0 -2.12 1.31 t-0.66 3.97 q0 2.12 0.81 3.29 t2.21 1.17 q0.74 0 1.61 -0.35 t1.87 -1.11 q0.42 0.28 0.8 0.78 t0.48 0.96 q-0.44 0.44 -1.03 0.81 t-1.27 0.65 t-1.42 0.44 t-1.48 0.16 q-1.48 0 -2.5 -0.57 t-1.67 -1.54 t-0.94 -2.25 t-0.29 -2.7 q0 -1.8 0.44 -3.15 t1.19 -2.24 t1.76 -1.34 t2.15 -0.45 q1.18 0 2.13 0.32 t1.61 0.87 t1.02 1.28 t0.36 1.57 q0 1.5 -1.52 1.5 q-0.22 0 -0.48 -0.03 t-0.58 -0.11 z M48.78 19.32 q-0.56 0.84 -1.8 0.84 q-0.7 0 -1.05 -0.36 t-0.63 -1.22 l-0.92 -2.62 q-0.36 -1.04 -0.83 -1.47 t-1.27 -0.43 q-0.2 0 -1.12 0.04 l0 5.9 q-0.52 0.1 -1.34 0.1 t-1.34 -0.1 l0 -13.66 q0.52 -0.1 1.34 -0.1 t1.34 0.1 l0 5.5 l0.8 -0.02 q0.32 0 0.48 -0.13 t0.36 -0.49 l2.22 -3.96 q0.3 -0.54 0.6 -0.77 t0.84 -0.23 t1.62 0.08 l0.16 0.2 l-2.72 4.86 q-0.46 0.82 -0.98 1.24 q0.94 0.2 1.44 0.77 t0.88 1.59 l0.94 2.68 q0.14 0.36 0.17 0.43 t0.13 0.31 q0.28 0.56 0.44 0.7 t0.24 0.22 z M58.28 11.84 l-0.02 -1.48 l0 -4.02 q0.52 -0.1 1.33 -0.1 t1.37 0.1 l0 13.66 q-0.58 0.1 -1.37 0.1 t-1.33 -0.1 l0 -4.46 l0.02 -1.48 l-1.06 0.02 l-2.82 0 l-1.08 -0.02 l0.02 1.48 l0 4.46 q-0.52 0.1 -1.34 0.1 t-1.34 -0.1 l0 -13.66 q0.52 -0.1 1.34 -0.1 t1.34 0.1 l0 4.02 l-0.02 1.48 l1.08 -0.02 l2.82 0 z M71.14 16.9 l-0.98 0.02 l-2.8 0 l-0.98 -0.02 l-0.94 3.12 q-0.42 0.1 -1.19 0.1 t-1.25 -0.18 l-0.1 -0.14 l4.46 -13.46 q0.74 -0.1 1.6 -0.1 t1.5 0.12 l4.38 13.46 q-0.58 0.34 -1.39 0.34 t-1.16 -0.3 t-0.59 -1.14 z M67.04 14.78 l0.9 -0.02 l1.72 0 l0.84 0.02 l-0.6 -2.04 q-0.68 -2.28 -1.08 -3.88 l-0.12 0 q-0.18 0.86 -0.88 3.38 z M87.06 6.34 l0 8.74 q0 2.5 -1.37 3.85 t-3.87 1.35 q-2.48 0 -3.85 -1.35 t-1.37 -3.85 l0 -8.72 l0.12 -0.14 l1 0 q0.8 0 1.18 0.41 t0.38 1.31 l0 7.16 q0 3.04 2.54 3.04 q2.56 0 2.56 -3.04 l0 -8.76 q0.56 -0.1 1.34 -0.1 t1.34 0.1 z M94.7 17.72 l3.72 0 q0 0.6 -0.08 1.02 q-0.22 1.3 -1.74 1.3 l-4.86 0 q-0.72 0 -1.14 -0.43 t-0.42 -1.17 l0 -12.08 l0.14 -0.14 l1 0 q0.8 0 1.18 0.41 t0.38 1.31 l0 9.86 q0.86 -0.08 1.82 -0.08 z"></path></g><g id="SvgjsG1237" featureKey="UxezYZ-0" transform="matrix(1.0685555463031926,0,0,1.0685555463031926,34.35886804794096,215.58866825076183)" fill="url(#SvgjsLinearGradient1249)"><path d="M0.6 20 l0 -2.24 l0.42 -0.28 l0 -8.96 l-0.42 -0.28 l0 -2.24 l3.1 0 l2.08 5.3 l2.08 -5.3 l3.1 0 l0 2.24 l-0.42 0.28 l0 8.96 l0.42 0.28 l0 2.24 l-3.36 0 l0 -2.24 l0.42 -0.28 l0 -4.98 l-1.24 3.16 l-2 0 l-1.24 -3.16 l0 4.98 l0.42 0.28 l0 2.24 l-3.36 0 z M20.956 20 l-1.86 -1.86 l0 -10.28 l1.86 -1.86 l4.54 0 l1.86 1.86 l0 10.28 l-1.86 1.86 l-4.54 0 z M21.996 17.48 l2.46 0 l0.38 -0.38 l0 -8.2 l-0.38 -0.38 l-2.46 0 l-0.38 0.38 l0 8.2 z M37.832 20 l-2.32 -11.48 l-0.42 -0.28 l0 -2.24 l2.48 0 l2 9.88 l2 -9.88 l2.48 0 l0 2.24 l-0.42 0.28 l-2.32 11.48 l-3.48 0 z M51.788 20 l0 -2.24 l0.42 -0.28 l0 -8.96 l-0.42 -0.28 l0 -2.24 l7.28 0 l0 2.94 l-2.24 0 l-0.28 -0.42 l-1.82 0 l0 3.22 l3.22 0 l0 2.52 l-3.22 0 l0 3.22 l1.82 0 l0.28 -0.42 l2.24 0 l0 2.94 l-7.28 0 z M69.064 20 l-1.86 -1.86 l0 -2.62 l2.52 0 l0 1.58 l0.38 0.38 l2.04 0 l0.38 -0.38 l0 -2.46 l-0.38 -0.38 l-3.08 0 l-1.86 -1.86 l0 -4.54 l1.86 -1.86 l4.12 0 l1.86 1.86 l0 2.62 l-2.52 0 l0 -1.58 l-0.38 -0.38 l-2.04 0 l-0.38 0.38 l0 2.46 l0.38 0.38 l3.08 0 l1.86 1.86 l0 4.54 l-1.86 1.86 l-4.12 0 z M95.696 20 l0 -2.24 l0.42 -0.28 l0 -2.68 l-2.22 -6.18 l-0.58 -0.38 l0 -2.24 l2.3 0 l1.76 4.86 l1.76 -4.86 l2.3 0 l0 2.24 l-0.58 0.38 l-2.22 6.14 l0 2.74 l0.42 0.26 l0 2.24 l-3.36 0 z M111.032 20 l-1.86 -1.86 l0 -10.28 l1.86 -1.86 l4.54 0 l1.86 1.86 l0 10.28 l-1.86 1.86 l-4.54 0 z M112.072 17.48 l2.46 0 l0.38 -0.38 l0 -8.2 l-0.38 -0.38 l-2.46 0 l-0.38 0.38 l0 8.2 z M127.848 20 l-1.86 -1.86 l0 -9.62 l-0.42 -0.28 l0 -2.24 l3.36 0 l0 2.24 l-0.42 0.28 l0 8.58 l0.38 0.38 l2.32 0 l0.38 -0.38 l0 -8.58 l-0.42 -0.28 l0 -2.24 l3.36 0 l0 2.24 l-0.42 0.28 l0 9.62 l-1.86 1.86 l-4.4 0 z M153.2 20 l0 -2.24 l0.42 -0.28 l0 -8.96 l-0.42 -0.28 l0 -2.24 l7.28 0 l0 2.94 l-2.24 0 l-0.28 -0.42 l-1.82 0 l0 3.22 l3.22 0 l0 2.52 l-3.22 0 l0 3.22 l0.42 0.28 l0 2.24 l-3.36 0 z M170.476 20 l-1.86 -1.86 l0 -10.28 l1.86 -1.86 l4.54 0 l1.86 1.86 l0 10.28 l-1.86 1.86 l-4.54 0 z M171.516 17.48 l2.46 0 l0.38 -0.38 l0 -8.2 l-0.38 -0.38 l-2.46 0 l-0.38 0.38 l0 8.2 z M185.012 20 l0 -2.24 l0.42 -0.28 l0 -8.96 l-0.42 -0.28 l0 -2.24 l6.4 0 l1.86 1.86 l0 5.1 l-1.08 1.1 l0.86 3.34 l0.5 0.36 l0 2.24 l-3.44 0 l0 -2.24 l0.36 -0.24 l-0.7 -2.7 l-1.82 0 l0 2.66 l0.42 0.28 l0 2.24 l-3.36 0 z M187.952 12.3 l2.42 0 l0.38 -0.38 l0 -3.02 l-0.38 -0.38 l-2.42 0 l0 3.78 z M203.268 20 l-1.8 -11.52 l-0.36 -0.24 l0 -2.24 l2.52 0 l1.26 8.06 l1.26 -8.06 l2.38 0 l1.26 8.06 l1.26 -8.06 l2.52 0 l0 2.24 l-0.36 0.24 l-1.8 11.52 l-3.24 0 l-0.82 -5.3 l-0.84 5.3 l-3.24 0 z M220.904 20 l0 -2.24 l0.42 -0.28 l1.82 -8.96 l-0.42 -0.28 l0 -2.24 l5.32 0 l0 2.24 l-0.42 0.28 l1.82 8.96 l0.42 0.28 l0 2.24 l-2.48 0 l-0.62 -3.08 l-2.76 0 l-0.62 3.08 l-2.48 0 z M224.524 14.4 l1.72 0 l-0.86 -4.28 z M237.6 20 l0 -2.24 l0.42 -0.28 l0 -8.96 l-0.42 -0.28 l0 -2.24 l6.4 0 l1.86 1.86 l0 5.1 l-1.08 1.1 l0.86 3.34 l0.5 0.36 l0 2.24 l-3.44 0 l0 -2.24 l0.36 -0.24 l-0.7 -2.7 l-1.82 0 l0 2.66 l0.42 0.28 l0 2.24 l-3.36 0 z M240.54 12.3 l2.42 0 l0.38 -0.38 l0 -3.02 l-0.38 -0.38 l-2.42 0 l0 3.78 z M254.096 20 l0 -2.24 l0.42 -0.28 l0 -8.96 l-0.42 -0.28 l0 -2.24 l6.68 0 l1.86 1.86 l0 10.28 l-1.86 1.86 l-6.68 0 z M257.036 17.48 l2.7 0 l0.38 -0.38 l0 -8.2 l-0.38 -0.38 l-2.7 0 l0 8.96 z"></path></g>
			</g>
		</svg>
	